<?xml version="1.0" standalone="no"?>
<!DOCTYPE svg PUBLIC "-//W3C//DTD SVG 20010904//EN"
 "http://www.w3.org/TR/2001/REC-SVG-20010904/DTD/svg10.dtd">
<svg version="1.0" xmlns="http://www.w3.org/2000/svg"
 width="1175.000000pt" height="1175.000000pt" viewBox="0 0 1175.000000 1175.000000"
 preserveAspectRatio="xMidYMid meet">
<metadata>
Created by potrace 1.14, written by Peter Selinger 2001-2017
</metadata>
<g transform="translate(0.000000,1175.000000) scale(0.100000,-0.100000)"
fill="#000000" stroke="none">
<path d="M3863 11095 c-36 -25 -45 -78 -50 -290 -4 -189 -14 -265 -33 -265
-36 0 -229 184 -321 307 -74 98 -101 123 -135 123 -54 0 -77 -80 -71 -246 3
-102 34 -369 53 -456 3 -14 0 -29 -5 -33 -6 -3 -11 -17 -11 -30 0 -25 -33 -51
-50 -40 -13 8 -13 2 2 -30 15 -34 -2 -55 -29 -34 -14 11 -13 6 5 -24 12 -21
22 -40 22 -43 0 -10 -24 -2 -47 16 -14 11 -29 20 -34 20 -4 0 -5 -24 -2 -54 8
-82 2 -91 -45 -66 -22 12 -48 30 -57 40 -20 23 -55 29 -37 7 6 -7 15 -31 21
-52 5 -22 14 -54 19 -71 l10 -31 -38 21 c-47 25 -61 15 -37 -26 10 -17 16 -31
15 -32 -2 -1 -28 -20 -58 -43 -30 -22 -115 -80 -188 -128 -139 -91 -133 -84
-233 -245 -19 -30 -41 -68 -49 -85 -8 -16 -22 -42 -32 -56 -12 -18 -14 -29 -7
-36 7 -7 6 -21 -4 -45 -20 -49 -41 -61 -35 -20 5 38 -11 33 -48 -15 -17 -22
-24 -43 -21 -58 2 -14 0 -26 -4 -27 -5 -2 -14 -30 -20 -63 -6 -33 -17 -71 -24
-85 -31 -59 -175 -183 -345 -298 -270 -181 -552 -362 -692 -442 -70 -40 -124
-78 -121 -83 3 -6 1 -7 -4 -4 -6 4 -39 -9 -73 -28 -34 -19 -66 -35 -70 -35
-18 0 -16 -27 4 -55 12 -16 37 -61 56 -100 29 -57 44 -76 85 -101 28 -18 76
-52 108 -75 163 -122 206 -150 252 -164 56 -16 161 -21 219 -10 l38 8 -7 -32
c-6 -29 -3 -36 35 -71 23 -21 40 -42 37 -47 -6 -9 35 -12 158 -14 99 -1 180
26 214 72 l22 30 33 -19 33 -20 59 28 c214 102 395 133 535 90 87 -26 154 -59
198 -96 40 -33 49 -51 61 -116 18 -93 60 -128 60 -49 0 20 5 42 11 48 8 8 8
13 0 17 -6 4 -11 24 -10 44 l0 37 16 -49 c8 -27 13 -59 10 -71 -3 -18 0 -21
15 -17 21 5 25 -17 6 -36 -6 -6 -8 -15 -3 -19 4 -5 10 -2 12 5 3 7 14 17 25
23 15 8 19 8 14 0 -4 -6 -1 -20 7 -32 15 -20 12 -53 -6 -76 -5 -7 -6 -25 -1
-40 4 -16 8 -30 8 -33 3 -15 49 -101 57 -105 4 -3 11 7 15 22 12 55 17 58 27
11 5 -27 13 -48 18 -48 5 0 6 6 3 14 -3 8 0 25 7 38 l13 23 7 -25 c4 -14 8
-43 8 -65 1 -43 20 -88 36 -87 6 0 13 -8 18 -20 4 -11 16 -22 27 -25 17 -5 19
-12 15 -60 -2 -30 0 -62 4 -71 5 -10 17 -36 26 -59 10 -23 22 -40 26 -37 5 3
9 30 9 60 0 59 10 69 27 27 11 -28 11 -28 12 10 1 43 16 42 26 -2 3 -16 13
-35 21 -42 9 -7 29 -39 45 -71 l29 -58 -112 0 c-121 0 -576 -23 -798 -40 -330
-25 -586 -64 -755 -116 -72 -22 -242 -98 -255 -114 -3 -3 -30 -21 -60 -40
-100 -63 -246 -205 -277 -270 -7 -14 -17 -32 -22 -40 -5 -8 -19 -38 -30 -67
-30 -73 -30 -237 0 -325 25 -76 106 -243 125 -259 8 -6 14 -17 14 -23 0 -7 11
-23 25 -36 14 -13 25 -28 25 -33 0 -5 27 -42 60 -82 33 -40 60 -77 60 -82 0
-4 9 -14 20 -21 11 -7 20 -19 20 -26 0 -8 4 -16 9 -18 11 -4 111 -136 111
-147 0 -4 9 -16 20 -26 11 -10 20 -22 20 -26 0 -5 6 -17 14 -26 8 -10 48 -58
88 -108 41 -49 91 -110 113 -135 65 -74 375 -382 440 -437 33 -28 72 -62 86
-75 42 -38 80 -70 159 -133 41 -33 77 -63 80 -66 3 -3 32 -25 65 -49 33 -24
66 -50 73 -57 14 -14 6 -27 -104 -163 -20 -25 -57 -87 -81 -137 -24 -51 -50
-93 -56 -93 -8 0 -8 -3 1 -9 10 -6 11 -18 3 -52 -15 -64 -13 -170 5 -279 l15
-95 -23 -17 c-58 -45 -178 -158 -219 -208 -53 -64 -69 -101 -104 -240 -59
-232 -67 -413 -23 -489 28 -50 47 -110 46 -154 0 -61 36 -98 163 -162 107 -54
113 -56 153 -46 22 5 55 13 71 16 42 8 45 41 4 50 -16 4 -29 12 -29 20 0 7
-25 19 -57 28 -101 27 -136 44 -175 83 -38 37 -38 39 -18 48 31 14 18 31 -25
32 -53 1 -80 36 -77 100 2 54 7 64 33 64 25 0 24 14 -3 32 -19 13 -23 26 -26
86 -7 114 4 161 39 180 17 10 38 22 47 29 15 10 14 11 -6 6 -12 -3 -25 -9 -28
-14 -3 -5 -12 -9 -21 -9 -38 0 23 153 104 262 96 129 165 204 208 230 18 11
115 -82 115 -109 0 -23 47 -64 120 -102 135 -72 261 -165 285 -211 10 -20 15
-59 15 -120 0 -99 -8 -113 -56 -92 -24 11 -26 10 -28 -20 -1 -7 -5 -16 -10
-19 -13 -10 3 -29 24 -29 11 0 34 -13 52 -29 l33 -30 -20 -38 c-10 -21 -55
-73 -99 -115 -44 -43 -77 -81 -73 -84 3 -4 58 46 122 110 l115 117 57 -11 c32
-6 70 -16 86 -22 30 -12 109 4 137 28 8 7 28 16 45 20 16 4 50 19 75 34 75 44
135 61 214 63 41 1 78 -1 82 -5 8 -9 -15 -88 -27 -88 -14 0 -52 -76 -50 -100
2 -14 4 -26 6 -28 5 -6 129 28 134 36 3 6 32 22 64 37 60 29 120 30 142 3 5
-7 24 -15 40 -17 17 -1 38 -7 47 -12 23 -12 354 -52 433 -53 33 0 119 6 190
13 170 17 292 9 495 -33 239 -49 362 -59 665 -53 269 5 322 11 531 62 93 23
121 25 333 25 148 0 282 -6 369 -16 122 -14 140 -14 167 -1 17 8 86 20 155 26
138 13 189 26 357 94 188 76 249 132 333 303 56 115 70 164 98 329 l19 110 39
5 c74 11 115 40 182 130 34 47 100 132 145 189 96 122 106 142 101 196 -3 35
2 45 37 84 22 24 70 80 107 124 37 45 74 89 82 98 17 19 45 54 75 94 11 14 27
34 35 43 8 10 28 35 45 57 30 40 36 47 82 103 16 17 47 58 71 90 23 31 70 94
105 140 34 45 89 119 122 163 76 102 219 287 245 317 11 13 20 28 20 33 0 5 9
14 20 21 11 7 20 17 20 23 0 6 9 17 20 25 11 8 20 19 20 25 0 6 9 17 20 25 11
8 20 19 20 25 0 6 9 17 20 25 11 8 20 18 20 23 0 4 36 53 80 107 44 54 80 103
80 108 0 5 9 17 20 27 11 10 20 23 20 28 0 6 6 18 14 26 28 32 116 201 116
224 0 6 7 25 15 40 17 32 44 179 46 247 5 153 -73 327 -197 440 -49 44 -132
99 -159 105 -22 4 -188 25 -405 50 -146 17 -262 31 -380 46 -41 5 -120 14
-175 19 -55 6 -158 17 -230 25 -71 8 -162 18 -201 21 l-72 7 -6 66 c-3 36 -11
145 -16 241 -28 481 -35 524 -143 770 -65 149 -136 321 -201 490 -29 74 -66
164 -81 200 -59 132 -244 450 -323 553 -45 59 -84 117 -86 130 -22 99 -28 226
-35 659 -4 274 -9 499 -12 501 -2 2 -76 21 -164 42 -88 20 -275 66 -415 102
-140 35 -285 67 -322 70 l-68 6 -35 -37 c-50 -53 -84 -115 -123 -225 -32 -90
-33 -93 -28 -45 9 89 63 212 119 271 l50 53 -44 -1 c-34 -1 -39 -3 -19 -8 l24
-7 -24 -17 c-30 -21 -39 -21 -62 0 -17 15 -18 15 -18 -5 0 -11 -8 -23 -18 -27
-18 -5 -82 -76 -82 -91 0 -7 -70 -166 -76 -173 -2 -2 -21 7 -41 21 -21 14 -91
53 -157 88 -103 55 -127 63 -186 68 -46 3 -82 0 -112 -11 -75 -25 -206 -107
-453 -282 -18 -12 -27 -2 -27 32 0 15 -11 41 -23 58 -13 16 -46 76 -74 132
-28 56 -60 107 -71 113 -11 6 -26 24 -35 39 -10 21 -20 28 -33 24 -11 -2 -36
3 -57 11 -26 11 -70 16 -149 16 -100 0 -120 -3 -196 -31 -47 -18 -141 -47
-210 -65 -69 -18 -200 -53 -292 -77 -93 -25 -168 -43 -168 -41 0 8 136 65 213
88 45 14 147 37 227 51 109 20 158 34 197 55 29 17 78 36 110 45 52 13 53 14
16 11 -45 -4 -53 4 -53 50 0 18 5 24 22 24 17 0 19 3 11 11 -13 13 -85 -1
-140 -28 -29 -14 -33 -14 -48 1 -9 9 -27 16 -39 16 -18 0 -26 9 -36 43 -8 23
-20 52 -28 65 -9 14 -12 32 -8 50 18 71 22 122 10 122 -18 0 -25 -27 -14 -55
6 -15 6 -26 0 -30 -6 -4 -10 -17 -10 -30 l0 -25 -37 21 c-21 11 -53 32 -72 45
-19 13 -36 23 -38 21 -2 -2 4 -17 12 -34 10 -19 14 -48 11 -78 -6 -80 -18 -79
-104 10 -43 44 -90 95 -105 113 -31 39 -33 37 -11 -18 13 -32 14 -44 5 -53
-10 -9 -15 -8 -25 5 -9 12 -16 14 -23 7 -8 -8 -16 -4 -28 14 -9 14 -26 27 -38
29 -12 2 -28 15 -35 31 -7 15 -17 27 -21 27 -4 0 -13 11 -19 24 -6 14 -61 84
-123 158 -97 115 -121 150 -175 263 -35 72 -71 138 -81 147 -28 25 -57 29 -80
13z m29 -90 c3 -14 1 -28 -4 -31 -5 -3 -8 -31 -8 -62 3 -91 -20 -522 -30 -577
-12 -69 -24 -158 -22 -167 1 -4 -7 -22 -18 -40 -19 -32 -20 -32 -20 -8 0 36
48 416 60 470 5 25 9 129 10 232 0 102 3 193 6 202 8 21 20 12 26 -19z m20
-87 c-9 -9 -12 -4 -11 23 0 32 1 33 11 11 8 -17 8 -26 0 -34z m-607 -40 c-13
-43 -24 -123 -25 -198 -2 -71 -3 -73 -12 -35 -13 55 -6 219 11 239 20 23 35
20 26 -6z m125 -38 c29 -41 21 -38 -25 11 -26 26 -32 37 -18 30 12 -6 31 -24
43 -41z m-50 -20 c0 -5 -2 -10 -4 -10 -3 0 -8 5 -11 10 -3 6 -1 10 4 10 6 0
11 -4 11 -10z m856 -211 c27 -36 84 -124 84 -131 0 -4 30 -36 67 -72 37 -36
63 -69 59 -73 -11 -12 -122 110 -206 227 -41 58 -95 129 -118 160 -39 48 -35
46 30 -21 40 -42 78 -83 84 -90z m-641 53 c44 -42 100 -94 123 -114 39 -33 43
-40 37 -67 -5 -26 -11 -31 -35 -31 -30 0 -64 25 -55 41 4 5 1 9 -4 9 -6 0 -11
5 -11 12 0 7 -15 28 -32 47 -18 19 -25 29 -15 22 38 -29 7 25 -61 107 -25 28
-41 52 -36 52 5 0 45 -35 89 -78z m-251 -77 c4 -14 17 -30 29 -34 20 -8 20
-10 5 -16 -23 -9 -23 -27 0 -41 23 -15 26 -61 6 -92 -8 -13 -12 -27 -8 -30 4
-4 9 -1 11 6 3 6 11 12 18 12 8 0 18 6 22 13 4 6 16 18 25 25 15 12 20 12 32
-1 17 -17 20 -14 -62 -71 -81 -56 -97 -39 -101 112 -2 41 1 52 13 52 23 0 20
18 -4 25 -27 9 -27 65 1 65 4 0 10 -11 13 -25z m385 -176 c-9 -17 -13 -19 -20
-8 -5 8 -3 16 4 21 22 14 28 8 16 -13z m-119 -120 c-80 -74 -100 -87 -100 -62
0 10 19 30 43 45 23 15 53 39 67 53 13 14 31 25 39 25 9 -1 -11 -26 -49 -61z
m-250 12 c0 -6 -4 -13 -10 -16 -5 -3 -10 1 -10 9 0 9 5 16 10 16 6 0 10 -4 10
-9z m115 -1 c-3 -5 -12 -7 -20 -3 -21 7 -19 13 6 13 11 0 18 -4 14 -10z m-80
-20 c-3 -5 -1 -10 4 -10 6 0 11 -5 11 -11 0 -5 -4 -7 -10 -4 -16 10 -12 -7 10
-43 37 -60 17 -73 -26 -17 -22 29 -24 38 -14 50 7 8 9 15 5 15 -4 0 -2 7 5 15
14 17 24 20 15 5z m1477 -52 c-7 -7 -12 -8 -12 -2 0 14 12 26 19 19 2 -3 -1
-11 -7 -17z m-1167 -9 c-3 -8 -20 -24 -38 -36 -17 -12 -53 -42 -78 -65 -25
-24 -78 -72 -117 -107 -40 -36 -72 -69 -72 -75 -1 -20 -47 -69 -54 -57 -4 6
-16 11 -27 11 -11 0 -18 -4 -14 -10 10 -16 -42 -43 -69 -36 -31 8 -72 -30 -55
-50 13 -16 -8 -31 -23 -16 -8 8 -17 8 -30 1 -19 -10 -19 -11 -2 -23 15 -12 12
-14 -31 -20 -49 -8 -77 -20 -152 -69 -24 -15 -47 -27 -53 -27 -6 0 -18 -4 -28
-9 -9 -5 -37 -19 -62 -31 -25 -13 -60 -37 -79 -54 -40 -37 -111 -131 -111
-146 0 -16 -51 -61 -62 -54 -5 4 6 23 26 43 20 20 36 40 36 43 0 4 14 27 30
52 36 52 80 92 130 115 19 9 41 22 48 29 7 6 16 12 20 13 28 3 45 10 74 31 18
12 42 29 53 35 97 60 157 99 195 129 47 36 77 56 225 151 50 31 110 76 135 99
58 53 184 154 188 150 1 -2 0 -9 -3 -17z m-225 -33 c0 -3 -4 -8 -10 -11 -5 -3
-10 -1 -10 4 0 6 5 11 10 11 6 0 10 -2 10 -4z m1635 -7 c12 -19 -5 -23 -22 -6
-16 16 -16 17 -1 17 9 0 20 -5 23 -11z m298 -112 c39 -17 68 -48 50 -54 -8 -3
-1 -25 22 -69 19 -35 32 -64 30 -64 -2 0 12 -36 31 -81 53 -126 39 -126 -24 1
-90 181 -162 270 -186 232 -3 -5 4 -21 15 -38 11 -16 40 -69 65 -118 35 -67
42 -91 33 -97 -18 -11 -49 8 -43 26 4 9 0 15 -9 15 -17 0 -71 75 -63 88 3 5
-1 15 -9 22 -8 7 -15 9 -15 4 0 -4 -10 2 -22 13 -31 29 -121 62 -152 56 -35
-7 -33 -17 9 -42 19 -11 35 -16 35 -11 0 5 7 7 15 4 12 -5 13 -10 5 -19 -9
-11 -5 -12 18 -9 25 4 35 -2 71 -45 45 -54 46 -80 2 -82 -18 -1 -20 -3 -8 -6
12 -3 17 -12 15 -26 -3 -22 28 -47 59 -47 17 0 83 -65 83 -81 0 -5 -11 -9 -25
-9 -35 0 -31 -19 6 -27 29 -5 63 -41 57 -59 -1 -5 3 -25 10 -44 6 -19 10 -64
9 -100 -3 -59 -9 -74 -59 -157 -30 -51 -57 -91 -59 -88 -14 13 -170 35 -260
37 -57 1 -115 5 -128 10 -17 6 -27 5 -32 -4 -5 -7 -7 3 -4 24 3 21 -1 48 -10
65 -18 33 -20 79 -4 89 6 3 17 21 25 39 13 31 33 40 50 22 7 -6 -10 -11 -28
-8 -5 0 -8 -3 -8 -9 0 -15 19 -12 67 11 51 24 55 39 12 39 -17 0 -28 4 -24 10
3 6 17 10 31 10 21 0 24 4 22 28 -2 25 -6 29 -30 28 -15 -1 -28 -7 -28 -13 0
-7 -11 -15 -25 -18 -14 -3 -36 -7 -50 -10 -19 -4 -23 -2 -18 10 3 9 12 14 19
11 8 -3 14 -1 14 4 0 6 11 20 25 32 24 20 24 23 8 29 -10 4 -33 0 -51 -7 -24
-10 -39 -11 -53 -4 -23 13 -24 26 -3 34 9 3 14 13 10 21 -3 9 3 19 14 25 26
14 25 27 -1 35 -16 5 -19 12 -14 35 5 22 2 28 -15 33 -18 5 -20 11 -16 60 3
49 1 55 -14 54 -10 -1 -17 -4 -14 -8 2 -4 -1 -11 -7 -15 -8 -4 -9 -3 -5 4 3 6
-2 16 -13 22 -13 7 -22 7 -26 0 -9 -15 -25 -12 -25 4 0 19 -53 27 -84 13 -31
-14 -33 -23 -6 -32 14 -4 20 -15 20 -37 0 -37 -12 -34 -42 12 -27 40 -68 53
-68 22 0 -11 31 -83 70 -159 83 -165 126 -282 109 -297 -9 -8 -10 -6 -6 7 4
11 1 20 -8 23 -8 4 -13 9 -10 13 2 4 -2 19 -10 34 -8 15 -12 27 -9 27 3 0 -2
10 -10 22 -9 12 -16 33 -16 45 0 13 -4 23 -10 23 -5 0 -10 5 -10 11 0 5 -13
27 -29 47 -28 36 -37 59 -63 154 -10 39 -16 47 -42 52 -18 4 -38 1 -52 -9 -14
-9 -25 -11 -29 -5 -9 14 27 26 131 44 49 8 139 31 199 51 166 53 238 72 380
99 214 41 198 39 238 23z m1507 -22 c-10 -12 -60 -40 -115 -63 -25 -11 18 23
62 49 54 32 71 36 53 14z m410 -25 c74 -17 139 -34 145 -38 5 -4 13 -7 18 -8
4 -1 8 -2 10 -3 1 -2 13 -4 27 -7 43 -7 245 -57 250 -61 3 -3 -2 -10 -11 -16
-9 -7 -23 -27 -33 -44 -21 -41 -27 -42 -16 -2 13 45 4 55 -57 68 -78 15 -106
14 -100 -3 5 -13 -18 -31 -35 -28 -10 2 -20 -36 -13 -48 4 -6 12 -7 18 -3 7 3
4 -3 -6 -14 -20 -24 -14 -45 21 -74 26 -22 19 -69 -12 -70 -14 0 -16 -2 -6 -6
22 -9 26 -19 22 -57 -2 -21 -9 -33 -16 -30 -7 3 -12 -7 -12 -26 -1 -16 3 -30
8 -30 21 0 2 -44 -22 -51 -21 -5 -22 -7 -8 -14 14 -6 17 -16 14 -52 -3 -24
-11 -54 -19 -66 -7 -12 -20 -43 -28 -69 -7 -27 -17 -48 -22 -48 -4 0 -6 4 -3
9 10 16 -25 21 -47 7 -14 -9 -42 -13 -76 -11 -36 2 -70 -3 -102 -16 -27 -10
-51 -14 -54 -10 -3 5 -13 7 -24 4 -14 -4 -25 9 -51 59 -18 35 -48 91 -66 126
-18 34 -39 80 -45 101 -14 47 -4 111 16 111 8 0 15 5 15 10 0 15 36 12 50 -5
7 -8 18 -15 24 -15 6 0 29 -9 50 -21 21 -11 41 -18 44 -15 7 8 7 7 -58 40 -85
43 -92 52 -74 87 15 29 78 69 111 69 17 1 17 1 0 11 -18 10 -18 12 2 26 24 17
27 33 6 33 -10 0 -14 9 -13 24 1 14 6 22 10 20 4 -3 8 -1 8 4 0 14 68 81 75
74 3 -3 5 0 5 7 0 7 4 10 9 7 5 -3 14 1 21 9 7 8 21 15 31 15 26 0 33 18 6 18
-30 1 -69 8 -87 15 -17 7 -27 6 -90 -13 -25 -7 -54 -21 -64 -29 -14 -12 -20
-13 -23 -3 -7 18 -24 15 -50 -10 -13 -12 -23 -16 -23 -9 0 25 29 79 51 96 33
23 125 15 299 -25z m-3498 13 c6 -26 -2 -54 -13 -48 -12 8 -12 65 0 65 5 0 11
-8 13 -17z m34 -30 c-10 -10 -19 5 -10 18 6 11 8 11 12 0 2 -7 1 -15 -2 -18z
m34 -12 c0 -22 -16 -36 -24 -22 -8 12 3 41 15 41 5 0 9 -9 9 -19z m-424 -13
c-3 -13 -6 -28 -6 -35 0 -7 -7 -10 -15 -7 -18 7 -20 35 -3 52 19 19 31 14 24
-10z m384 -43 c0 -12 5 -26 12 -33 9 -9 9 -12 0 -12 -14 0 -44 68 -36 82 9 13
24 -11 24 -37z m4048 -41 c28 -4 52 -10 52 -13 0 -4 -21 -29 -46 -56 -59 -64
-126 -202 -160 -330 -14 -55 -32 -107 -40 -115 -13 -13 -14 -13 -9 5 4 11 -1
8 -10 -7 -16 -28 -34 -37 -36 -18 -7 57 3 135 32 235 27 94 130 304 149 304 8
1 39 -2 68 -5z m-868 -11 c0 -17 -19 -35 -29 -29 -6 4 -11 2 -11 -3 0 -6 -5
-11 -11 -11 -8 0 -8 5 1 15 7 8 16 12 21 9 5 -3 9 2 9 10 0 9 5 16 10 16 6 0
10 -3 10 -7z m-3757 -78 c-3 -9 -26 -30 -52 -48 l-46 -31 19 29 c24 37 37 50
56 58 25 9 30 8 23 -8z m1559 -9 c7 4 8 2 4 -4 -5 -9 -12 -9 -26 0 -10 7 -16
16 -13 21 3 5 10 2 15 -7 5 -9 14 -13 20 -10z m2702 -1 c-7 -16 -24 -21 -24
-6 0 8 7 13 27 20 1 1 0 -6 -3 -14z m150 -42 c-40 -125 -56 -187 -79 -300 -14
-67 -25 -125 -25 -128 0 -4 -4 -4 -9 -1 -4 3 -4 29 0 57 5 29 5 57 2 62 -3 6
-1 7 5 3 8 -5 12 6 12 36 0 59 18 167 33 192 6 12 12 31 14 43 3 33 32 83 48
83 12 0 12 -7 -1 -47z m-2977 1 c1 -29 -11 -21 -22 13 -4 17 -3 21 7 18 7 -3
14 -17 15 -31z m773 -36 c0 -40 -43 -31 -66 15 -13 25 -14 29 -2 24 8 -3 21
-1 28 3 16 10 39 -15 40 -42z m2114 -23 c3 -9 0 -15 -9 -15 -8 0 -15 7 -15 15
0 8 4 15 9 15 5 0 11 -7 15 -15z m-4565 -34 c14 -14 16 -22 8 -30 -19 -19 -32
-12 -34 19 -3 35 1 36 26 11z m1732 -11 c5 0 9 -11 9 -25 0 -32 -26 -33 -34
-1 -3 13 -9 32 -13 43 -7 17 -6 17 11 1 9 -10 22 -18 27 -18z m769 -56 c11
-37 19 -85 19 -108 -1 -22 -3 -32 -6 -21 -6 27 -26 79 -32 85 -5 5 -16 29 -36
85 -5 16 -5 17 4 5 9 -12 11 -11 11 8 0 39 19 14 40 -54z m1027 31 c29 -8 55
-20 58 -25 3 -5 -11 -51 -31 -102 -21 -51 -58 -156 -83 -233 l-46 -140 -173 5
c-139 4 -175 8 -182 20 -6 8 -24 60 -41 115 -17 55 -51 142 -75 194 -24 52
-44 100 -44 108 0 19 92 60 160 72 83 15 394 6 457 -14z m-3627 -5 c0 -6 -8
-14 -17 -17 -36 -13 -132 -84 -157 -115 -21 -27 -23 -34 -11 -41 21 -11 19
-30 -2 -25 -12 3 -29 -9 -48 -31 l-30 -34 30 7 c17 4 37 16 47 26 9 12 23 18
32 14 20 -8 21 6 1 32 -19 25 -19 34 0 34 8 0 15 -4 15 -10 0 -5 9 -10 20 -10
11 0 20 -4 20 -10 0 -22 -175 -246 -206 -263 -10 -6 -14 -2 -14 16 0 13 -7 32
-16 43 -15 18 -15 18 -9 -3 4 -13 2 -23 -4 -23 -5 0 -2 -13 7 -30 13 -22 14
-32 5 -41 -15 -15 -29 -5 -48 32 -17 33 -14 45 36 114 101 140 120 168 113
173 -4 4 -9 1 -11 -5 -3 -7 -10 -13 -16 -13 -23 0 138 136 192 162 63 30 71
32 71 18z m28 -37 c-15 -15 -30 -24 -34 -20 -7 7 35 46 51 47 5 0 -3 -12 -17
-27z m-58 -47 c0 -8 -84 -45 -89 -40 -6 6 23 26 54 36 25 8 35 9 35 4z m1910
-58 c0 -19 -2 -20 -10 -8 -13 19 -13 30 0 30 6 0 10 -10 10 -22z m13 -48 c3
-11 1 -20 -4 -20 -5 0 -9 9 -9 20 0 11 2 20 4 20 2 0 6 -9 9 -20z m127 -10 c0
-4 -9 -10 -20 -13 -19 -5 -28 12 -14 26 8 7 34 -3 34 -13z m-2432 -129 c3 -8
-1 -12 -9 -9 -7 2 -15 10 -17 17 -3 8 1 12 9 9 7 -2 15 -10 17 -17z m446 -147
c58 -24 96 -49 96 -65 0 -5 -12 -4 -26 1 -34 13 -134 13 -114 0 8 -5 27 -10
43 -10 15 0 27 -4 27 -9 0 -5 -73 -12 -162 -16 -90 -4 -169 -12 -175 -17 -9
-7 -13 -7 -13 0 0 6 27 40 61 76 50 54 67 65 97 68 56 5 101 -2 166 -28z
m-437 -12 c-19 -21 -23 -42 -5 -24 11 11 48 17 48 8 0 -2 -16 -27 -35 -56 -19
-29 -38 -64 -41 -79 -11 -48 -32 -72 -58 -65 -33 8 -54 -20 -32 -44 27 -31 20
-52 -16 -52 -23 0 -46 -12 -80 -41 -27 -22 -90 -67 -141 -99 -50 -32 -155
-101 -232 -153 -151 -103 -337 -218 -425 -263 -30 -15 -81 -45 -113 -66 -32
-21 -63 -38 -68 -38 -5 0 -47 -20 -92 -45 -46 -25 -89 -45 -95 -45 -26 0 -10
16 33 34 25 10 62 29 82 43 21 14 71 43 113 66 41 22 163 96 270 164 392 249
471 299 529 332 90 51 199 145 144 124 -18 -7 -89 -47 -140 -80 -26 -16 -27
-16 -14 0 20 26 137 107 154 107 25 0 62 53 96 139 36 88 106 180 124 162 7
-7 5 -16 -6 -29z m-160 -67 c-10 -33 -27 -48 -27 -25 0 10 29 60 35 60 2 0 -2
-16 -8 -35z m4235 8 c10 -10 -59 -13 -343 -12 -254 1 -333 4 -279 10 41 5 82
11 90 13 8 3 128 4 267 3 186 -2 255 -5 265 -14z m653 -90 c158 -24 349 -70
432 -103 208 -83 398 -236 478 -381 25 -47 22 -64 -8 -35 -7 8 -76 51 -153 97
-225 134 -426 206 -739 264 -77 14 -205 39 -285 55 -151 30 -257 44 -400 56
-47 4 -88 11 -91 16 -6 9 -438 13 -447 3 -3 -3 35 -6 84 -7 58 -1 70 -3 34 -5
-279 -16 -431 -42 -900 -155 -258 -62 -558 -209 -725 -354 -47 -41 -85 -71
-85 -67 0 4 -18 -19 -40 -52 -51 -76 -52 -91 -2 -28 55 68 176 178 252 228
140 91 303 158 410 169 57 5 112 17 125 26 6 4 28 8 50 8 37 1 38 0 17 -11
-12 -7 -19 -16 -16 -20 4 -4 2 -7 -5 -7 -7 0 -20 -7 -29 -16 -15 -15 -15 -16
4 -10 45 14 263 56 322 62 88 9 80 -11 -10 -26 -238 -39 -359 -85 -512 -195
-83 -59 -282 -175 -303 -175 -6 0 -13 -4 -15 -8 -1 -5 -68 -40 -148 -77 -80
-38 -159 -82 -176 -98 -18 -16 -47 -58 -65 -94 -19 -36 -38 -74 -44 -84 -5
-11 -15 -19 -22 -19 -7 0 -12 -3 -12 -7 4 -23 -2 -43 -11 -38 -5 3 -10 0 -10
-8 0 -7 -11 -35 -24 -63 -13 -27 -38 -84 -56 -127 -17 -42 -35 -75 -40 -72 -4
3 21 79 56 170 164 424 358 767 505 891 141 120 456 242 749 291 148 24 1225
31 1440 9 85 -9 182 -16 215 -15 55 1 50 3 -55 18 l-115 18 135 -4 c74 -2 180
-11 235 -20z m-4010 -20 c95 -26 130 -41 121 -50 -3 -4 0 -13 6 -22 12 -15 11
-15 -7 0 -36 29 -49 34 -42 16 4 -11 1 -17 -8 -17 -14 0 -20 -18 -16 -47 1 -7
-3 -13 -10 -13 -19 0 -2 -57 32 -106 36 -53 35 -69 -3 -49 -22 11 -28 11 -28
1 0 -7 12 -18 26 -24 14 -7 22 -16 19 -22 -3 -5 5 -14 17 -21 21 -11 22 -11
10 4 -8 9 -12 22 -10 29 5 15 27 -21 34 -55 2 -12 8 -23 12 -25 5 -1 18 -9 28
-17 15 -11 16 -16 6 -23 -10 -7 -9 -12 4 -23 16 -12 17 -12 11 4 -10 26 4 21
45 -20 38 -37 51 -71 23 -59 -46 19 -44 15 11 -21 77 -51 106 -86 95 -116 -10
-26 -18 -26 -134 15 -49 16 -91 28 -94 25 -11 -12 9 -27 36 -27 15 0 54 -13
86 -30 32 -16 65 -30 73 -30 10 0 13 -7 9 -21 -3 -12 0 -22 9 -26 8 -3 14 -13
14 -22 -1 -14 -2 -14 -10 0 -6 10 -20 14 -42 13 -45 -4 -66 4 -73 27 -4 13
-15 19 -34 19 -15 0 -32 5 -38 11 -6 6 -19 9 -29 7 -14 -2 -7 -10 28 -33 39
-25 68 -59 68 -81 0 -3 -13 4 -29 16 -18 12 -32 16 -36 10 -9 -15 -45 -12 -45
4 0 8 5 18 11 21 15 10 -29 55 -53 55 -20 0 -24 -20 -8 -36 11 -11 2 -74 -10
-74 -17 0 -31 30 -24 52 6 22 6 22 -13 5 -18 -16 -22 -16 -33 -2 -7 8 -18 15
-25 15 -8 0 -23 12 -34 26 -16 20 -83 64 -98 64 -1 0 37 -37 86 -83 92 -88
184 -150 239 -162 17 -3 32 -10 32 -13 0 -9 -50 -32 -68 -32 -8 0 -30 -7 -49
-17 -26 -12 -33 -21 -30 -35 7 -25 -15 -33 -55 -19 -38 13 -98 4 -98 -14 0 -8
8 -16 18 -19 10 -4 34 -18 53 -31 32 -25 33 -26 11 -31 -13 -4 -22 -14 -22
-25 0 -31 -43 -34 -88 -5 -50 31 -106 37 -129 13 -16 -16 -16 -17 4 -17 14 0
27 -11 37 -30 8 -16 13 -30 11 -30 -1 0 -23 12 -49 26 -25 14 -46 21 -46 16 0
-12 48 -54 90 -79 39 -23 38 -36 -5 -56 -31 -15 -34 -20 -25 -37 6 -11 16 -21
23 -21 7 -1 24 -2 39 -3 32 -2 50 -16 22 -17 -17 0 -16 -1 4 -9 12 -5 22 -16
22 -25 0 -14 -3 -14 -28 -1 -98 50 -237 86 -335 86 -98 -1 -341 -64 -552 -144
-115 -44 -135 -49 -151 -35 -11 9 -12 15 -3 25 7 9 8 14 1 14 -5 0 -13 -7 -16
-16 -5 -14 -9 -14 -23 -3 -13 11 -17 11 -20 2 -3 -7 -13 -13 -24 -13 -10 0
-19 -4 -19 -9 0 -12 41 -22 70 -16 17 3 20 1 13 -6 -6 -6 -39 -11 -73 -11 -53
0 -69 5 -104 29 -63 45 -56 63 34 88 85 24 219 73 237 87 6 5 49 28 95 51 46
24 117 65 158 92 91 60 147 87 223 109 31 9 57 20 57 24 0 4 -9 22 -20 40 -11
17 -15 32 -10 32 6 0 18 -16 27 -35 9 -19 24 -35 32 -35 28 1 126 54 129 70 4
22 -64 87 -105 101 -84 27 -264 -26 -473 -141 -113 -62 -131 -66 -179 -35 -46
28 -54 21 -16 -15 34 -32 32 -38 -12 -42 -29 -2 -38 -7 -37 -20 2 -26 -6 -22
-38 15 -19 21 -25 25 -18 10 5 -12 10 -29 10 -37 0 -20 -34 -21 -50 -1 -7 8
-17 15 -22 15 -5 0 -37 18 -70 40 -34 22 -69 40 -77 39 -13 0 -12 -3 3 -12 99
-62 166 -112 163 -121 -4 -12 -295 -113 -342 -119 -16 -2 -40 -9 -52 -15 -12
-7 -28 -12 -37 -12 -8 0 -21 -9 -30 -21 -11 -17 -18 -19 -33 -10 -14 8 -14 10
-3 11 15 0 47 57 37 67 -10 9 -28 -8 -21 -19 4 -7 2 -8 -5 -4 -6 4 -9 17 -6
29 2 12 2 16 -1 10 -6 -14 -36 -18 -47 -6 -4 3 -2 13 5 20 10 12 6 14 -26 7
-37 -6 -38 -6 -31 17 7 21 6 22 -8 11 -11 -9 -25 -10 -49 -4 -41 10 -43 33 -4
43 29 8 79 52 70 61 -8 9 37 173 56 203 10 17 28 38 39 47 21 18 19 48 -3 48
-6 0 -22 7 -35 16 l-23 17 54 30 c29 16 80 43 113 59 33 17 73 40 89 51 33 23
68 29 78 13 5 -7 8 -4 8 7 0 10 4 16 9 13 5 -3 14 1 21 9 7 8 16 13 20 10 5
-3 11 -1 15 5 3 5 10 10 15 10 5 0 -4 -15 -21 -32 -34 -38 -36 -48 -9 -41 11
3 20 0 20 -6 0 -12 48 -5 65 10 5 5 19 9 31 9 13 0 26 5 29 10 3 6 15 10 26
10 10 0 46 22 79 48 76 61 141 97 211 116 70 18 247 109 266 135 8 12 23 21
35 21 19 0 20 4 14 53 -5 36 -3 47 4 37 5 -8 10 -23 10 -32 0 -10 3 -18 6 -18
10 0 64 44 128 105 37 35 70 59 80 57 24 -5 96 32 169 87 100 74 164 81 332
34z m-558 -29 c-7 -7 -37 7 -37 17 0 6 9 5 21 -1 11 -7 19 -14 16 -16z m3942
-128 c35 -9 78 -23 95 -31 138 -64 314 -107 511 -125 145 -13 187 -31 350
-151 102 -75 245 -154 405 -225 153 -67 228 -125 319 -248 69 -93 128 -192
119 -201 -2 -3 -27 28 -55 68 -28 39 -68 88 -88 107 l-37 35 26 -39 c14 -22
24 -41 22 -43 -2 -3 -87 38 -188 91 -175 91 -238 120 -238 112 0 -3 80 -46
178 -97 97 -50 202 -109 232 -130 55 -39 121 -120 146 -178 15 -35 1 -43 -23
-13 -10 12 -16 14 -19 5 -4 -9 -18 -4 -48 16 -23 16 -118 55 -214 87 -95 31
-170 59 -168 61 2 3 19 0 38 -5 49 -15 164 -42 179 -42 53 0 -191 118 -361
175 -158 53 -305 112 -370 148 -19 11 -82 37 -139 58 -57 22 -109 43 -115 47
-6 5 -47 21 -91 36 -84 28 -93 32 -165 65 -25 11 -79 28 -120 36 -41 9 -84 20
-95 25 -57 24 -145 33 -151 15 -3 -8 -12 -11 -20 -8 -8 3 -21 0 -30 -7 -18
-16 -222 -19 -438 -8 -78 4 -158 3 -180 -2 -23 -5 -54 -12 -70 -15 -22 -5 -26
-9 -16 -15 10 -6 6 -10 -16 -15 -60 -13 -251 -79 -319 -109 -73 -33 -103 -43
-220 -70 -38 -9 -128 -42 -200 -73 -71 -31 -180 -73 -242 -94 -118 -40 -143
-51 -165 -72 -7 -7 -29 -24 -48 -37 -19 -13 -37 -27 -40 -32 -3 -4 -36 -19
-74 -33 -107 -40 -155 -69 -238 -144 l-27 -24 13 44 c33 109 118 271 164 312
10 9 43 30 73 47 60 33 60 38 -1 14 -23 -9 -43 -14 -46 -11 -11 10 103 81 229
141 130 61 263 143 378 232 115 89 243 137 490 184 175 34 329 74 379 100 87
44 225 60 485 55 123 -2 200 -8 244 -19z m-3278 -22 c29 -32 31 -35 9 -24 -36
18 -60 41 -54 51 7 12 6 13 45 -27z m4077 -70 c15 -2 61 -6 102 -9 76 -5 122
-12 150 -22 8 -4 18 -6 21 -5 11 2 162 -49 194 -66 17 -8 81 -49 144 -91 140
-93 133 -89 151 -94 21 -6 157 -249 215 -382 26 -60 62 -155 80 -210 18 -55
40 -117 49 -137 10 -23 12 -38 6 -38 -6 0 -13 8 -17 18 -4 9 -19 36 -35 59
-29 43 -35 58 -18 48 24 -15 -70 177 -131 266 -29 44 -35 59 -26 68 9 9 8 11
-4 6 -9 -3 -27 5 -43 20 -15 14 -29 25 -32 25 -3 0 -20 11 -37 24 -34 26 -223
121 -377 190 -52 23 -162 86 -243 141 -176 116 -239 144 -322 145 -69 0 -240
26 -264 40 -14 8 -13 9 4 10 11 0 64 -7 119 -15 99 -15 373 -29 363 -19 -3 3
-23 8 -44 11 -21 3 -39 9 -41 14 -2 5 -10 9 -18 9 -9 0 -12 5 -9 10 5 8 11 7
21 -1 8 -6 27 -13 42 -15z m-5208 -34 c0 -5 -10 -15 -22 -21 -23 -12 -23 -12
-4 10 21 23 26 26 26 11z m-72 -63 c-7 -7 -33 -27 -58 -44 -25 -17 -56 -43
-69 -57 -14 -14 -29 -26 -34 -26 -6 0 -18 -6 -26 -14 -16 -13 -128 -76 -137
-76 -15 0 23 44 63 72 132 92 306 189 261 145z m1262 -37 c0 -5 -2 -10 -4 -10
-3 0 -8 5 -11 10 -3 6 -1 10 4 10 6 0 11 -4 11 -10z m150 -175 c7 -8 8 -15 2
-15 -5 0 -15 7 -22 15 -7 8 -8 15 -2 15 5 0 15 -7 22 -15z m775 -3 c-3 -3 -11
0 -18 7 -9 10 -8 11 6 5 10 -3 15 -9 12 -12z m-2495 -27 c-33 -19 -51 -19 -44
0 4 9 19 15 38 15 l31 -1 -25 -14z m1790 -11 c14 -36 13 -39 -10 -19 -21 19
-27 45 -10 45 6 0 15 -12 20 -26z m2000 -78 c-41 -13 -84 -27 -95 -31 -15 -6
-17 -5 -9 4 14 16 121 50 154 50 14 0 -9 -11 -50 -23z m1193 17 c-7 -2 -19 -2
-25 0 -7 3 -2 5 12 5 14 0 19 -2 13 -5z m10 -48 c84 -12 124 -25 78 -25 -55 0
-307 32 -320 41 -19 12 111 4 242 -16z m252 5 c14 -7 8 -8 -20 -3 -22 3 -42 7
-44 9 -9 8 45 2 64 -6z m-1180 -10 c-11 -5 -40 -8 -65 -8 l-45 1 45 7 c25 4
54 7 65 8 l20 1 -20 -9z m-137 -17 c-10 -2 -26 -2 -35 0 -10 3 -2 5 17 5 19 0
27 -2 18 -5z m842 -19 c191 -12 407 -33 505 -50 111 -18 167 -40 281 -109 97
-59 121 -73 251 -141 59 -31 121 -67 138 -80 18 -13 36 -24 41 -24 6 0 30 -18
54 -41 25 -22 57 -48 73 -57 15 -9 27 -20 27 -24 0 -10 136 -98 150 -98 6 0
11 -15 12 -32 0 -18 3 -58 4 -88 12 -223 -3 -359 -46 -420 -10 -14 -20 -42
-23 -63 -3 -20 -11 -44 -18 -53 -10 -13 -10 -17 1 -24 17 -10 -1 -36 -32 -46
-15 -5 -19 -13 -16 -35 3 -20 -1 -34 -14 -46 -17 -16 -18 -15 -15 5 2 12 6 25
10 28 4 4 7 14 7 23 -1 11 -8 8 -25 -12 -14 -15 -25 -25 -25 -21 0 3 -7 1 -15
-6 -8 -7 -12 -16 -9 -21 3 -5 0 -9 -6 -9 -7 0 -9 -8 -5 -19 4 -14 0 -21 -17
-27 -13 -3 -26 -11 -29 -16 -3 -4 -37 -22 -75 -38 -43 -19 -67 -34 -65 -42 3
-7 5 -31 5 -53 1 -22 6 -43 11 -47 6 -5 3 -8 -7 -8 -9 0 -18 6 -20 12 -8 24
-134 13 -218 -19 -8 -3 -19 -7 -25 -9 -5 -2 -20 -6 -32 -10 -17 -5 -23 -2 -23
9 0 25 -16 28 -59 11 -28 -11 -41 -22 -41 -35 0 -31 -45 -42 -150 -35 -184 12
-365 26 -402 32 l-38 6 0 419 c0 273 -3 419 -10 419 -7 0 -10 -147 -10 -421
l0 -422 -72 6 c-40 4 -158 11 -263 17 -104 6 -260 15 -345 20 -85 6 -369 10
-631 10 -522 0 -509 -2 -495 57 4 16 8 35 9 43 3 20 -59 41 -104 34 -34 -5
-41 -1 -100 58 -62 62 -137 154 -170 208 -23 38 -58 218 -64 340 -10 175 -11
241 -3 246 4 3 8 10 8 15 0 6 -3 8 -8 5 -4 -2 -12 6 -18 19 -9 18 -9 25 2 29
7 3 15 2 17 -2 2 -4 2 -1 1 5 -2 7 15 27 38 45 22 18 44 43 49 56 5 12 17 22
28 22 50 0 519 236 624 314 26 20 56 36 67 36 19 0 50 25 50 39 0 9 104 58
153 72 17 5 103 11 192 15 176 6 342 20 420 34 49 9 329 6 515 -6z m-3240 -75
c0 -10 -4 -19 -10 -19 -5 0 -10 12 -10 26 0 14 4 23 10 19 6 -3 10 -15 10 -26z
m4030 21 c8 -5 11 -10 5 -10 -5 0 -17 5 -25 10 -8 5 -10 10 -5 10 6 0 17 -5
25 -10z m-3860 -51 c0 -11 -4 -19 -10 -19 -5 0 -10 6 -10 14 0 8 -3 23 -7 33
-6 16 -5 16 10 4 9 -7 17 -22 17 -32z m1755 31 c-3 -5 -12 -10 -18 -10 -7 0
-6 4 3 10 19 12 23 12 15 0z m2150 0 c3 -5 2 -10 -4 -10 -5 0 -13 5 -16 10 -3
6 -2 10 4 10 5 0 13 -4 16 -10z m-2315 -9 c0 -4 -28 -21 -62 -36 -35 -15 -97
-44 -138 -65 -41 -20 -112 -50 -158 -65 -80 -26 -166 -68 -177 -85 -6 -9 53 3
114 25 55 19 75 19 39 -1 -15 -8 -70 -25 -122 -39 -51 -13 -130 -38 -175 -54
-44 -16 -81 -26 -81 -22 0 12 70 47 131 66 37 12 72 32 104 62 46 43 123 85
210 113 22 7 89 33 148 56 60 24 112 42 115 40 4 -2 16 0 27 5 11 4 21 8 23 8
1 1 2 -3 2 -8z m120 -11 c-8 -5 -22 -10 -30 -10 -13 0 -13 1 0 10 8 5 22 10
30 10 13 0 13 -1 0 -10z m-1790 -42 c0 -14 -19 1 -31 25 -12 22 -12 22 10 3
11 -11 21 -23 21 -28z m1739 27 c-15 -15 -226 -117 -288 -139 -111 -40 -106
-26 6 18 54 22 138 59 187 83 85 41 105 49 95 38z m-3988 -53 c-13 -2 -27 0
-32 5 -6 6 3 7 23 4 28 -4 29 -6 9 -9z m2299 -47 c0 -10 -5 -11 -25 -2 -20 10
-22 13 -7 18 21 8 32 2 32 -16z m-66 -21 c12 -5 14 -10 6 -19 -8 -9 -8 -15 0
-20 5 -3 10 -11 10 -16 0 -12 -79 42 -80 54 0 9 42 9 64 1z m41 -23 c3 -5 1
-12 -5 -16 -5 -3 -10 1 -10 9 0 18 6 21 15 7z m4355 0 c0 -6 15 -11 33 -13 18
-2 26 -5 17 -9 -8 -3 -40 2 -70 12 -54 18 -55 18 -17 18 20 1 37 -3 37 -8z
m-3030 -25 c0 -3 -4 -8 -10 -11 -5 -3 -10 -1 -10 4 0 6 5 11 10 11 6 0 10 -2
10 -4z m3130 -15 c0 -4 -11 -6 -25 -3 -14 2 -25 6 -25 8 0 2 11 4 25 4 14 0
25 -4 25 -9z m-4878 -119 c7 -10 26 -28 42 -40 16 -12 23 -22 17 -22 -30 0
-105 56 -95 71 8 14 22 10 36 -9z m5203 -44 c52 -18 90 -66 109 -138 7 -24 6
-24 -20 5 -25 29 -26 29 -19 5 21 -72 28 -140 18 -162 -10 -22 -11 -21 -17 17
-12 69 -45 147 -91 217 -50 75 -53 83 -27 73 9 -4 31 -12 47 -17z m-3765 7 c0
-3 -7 -17 -16 -31 -17 -24 -17 -24 10 -14 55 21 59 8 6 -18 -114 -57 -146
-200 -130 -584 3 -67 1 -109 -5 -110 -18 -5 -35 114 -45 322 -11 198 -8 271
10 355 8 37 6 55 -5 43 -8 -8 -32 -103 -50 -203 -9 -49 -19 -92 -21 -94 -8 -9
-2 197 7 231 16 60 49 91 105 99 63 8 134 10 134 4z m3709 -38 c50 -48 73
-108 78 -213 9 -146 -46 -549 -69 -508 -3 5 0 47 7 94 38 267 48 397 37 454
-16 81 -37 118 -94 172 -46 43 -48 46 -21 40 15 -4 43 -22 62 -39z m-5015 4
c4 -5 -3 -7 -14 -4 -23 6 -26 13 -6 13 8 0 17 -4 20 -9z m5368 -210 c30 -100
33 -121 20 -121 -7 0 -61 174 -79 255 -12 53 34 -51 59 -134z m-5444 102 c18
-18 22 -28 13 -31 -7 -2 -26 10 -43 27 -23 23 -26 31 -14 31 9 0 29 -12 44
-27z m-1593 -32 c6 -11 -59 -35 -78 -28 -7 2 1 11 18 20 34 19 51 21 60 8z
m1659 -127 c3 -8 2 -12 -4 -9 -6 3 -10 10 -10 16 0 14 7 11 14 -7z m149 1 c-3
-9 -8 -14 -10 -11 -3 3 -2 9 2 15 9 16 15 13 8 -4z m-12 -56 c-5 -13 -10 -19
-10 -12 -1 15 10 45 15 40 3 -2 0 -15 -5 -28z m297 -24 c-6 -14 -15 -25 -19
-25 -5 0 -3 11 3 25 6 14 15 25 19 25 5 0 3 -11 -3 -25z m-148 -64 c0 -17 -4
-32 -9 -35 -12 -8 -23 23 -16 45 10 29 25 22 25 -10z m5269 -138 c10 -27 30
-109 31 -127 0 -28 -21 18 -39 82 -19 70 -14 100 8 45z m-5138 -270 c-8 -14
-10 -8 -11 29 0 67 14 96 18 36 2 -26 -2 -56 -7 -65z m909 9 c13 -30 13 -42 0
-42 -16 0 -50 62 -50 90 l0 25 21 -25 c11 -14 24 -35 29 -48z m3662 -49 c-50
-60 -118 -124 -105 -100 13 25 136 157 141 152 3 -2 -14 -26 -36 -52z m-3652
-13 c0 -5 -4 -10 -10 -10 -5 0 -10 5 -10 10 0 6 5 10 10 10 6 0 10 -4 10 -10z
m-993 -37 c-3 -10 -5 -4 -5 12 0 17 2 24 5 18 2 -7 2 -21 0 -30z m1085 -37
c18 -24 19 -28 5 -23 -11 4 -17 1 -17 -7 0 -9 -8 -12 -25 -8 -14 2 -25 9 -25
15 0 6 -3 8 -6 4 -9 -9 -43 35 -37 49 2 7 13 10 24 7 15 -4 19 0 19 18 l0 24
21 -25 c11 -14 29 -38 41 -54z m-802 -82 c0 -13 -6 -24 -13 -24 -14 0 -19 23
-11 48 6 21 24 3 24 -24z m794 -3 c-1 -6 -2 -18 -2 -27 -3 -22 -18 -9 -30 25
-10 28 -9 29 11 22 12 -5 22 -13 21 -20z m3392 -27 c-20 -26 -36 -42 -36 -35
0 7 5 17 10 24 6 7 20 25 31 40 12 15 23 26 26 23 3 -2 -11 -26 -31 -52z
m-3253 -9 c23 -20 30 -37 34 -79 5 -51 5 -53 -21 -58 -19 -4 -38 3 -65 23 -51
37 -56 45 -37 74 9 13 16 31 16 39 0 12 13 20 40 25 3 0 18 -11 33 -24z m147
-35 c11 -7 9 -11 -14 -20 -34 -12 -44 -7 -26 15 14 17 20 18 40 5z m-42 -65
c-3 -3 -9 2 -12 12 -6 14 -5 15 5 6 7 -7 10 -15 7 -18z m3934 -52 c8 -10 18
-25 22 -33 4 -8 -1 -6 -11 6 -10 11 -27 26 -38 32 -16 9 -16 11 -4 12 9 0 23
-8 31 -17z m-1382 -33 c0 -5 -7 -10 -16 -10 -8 0 -12 5 -9 10 3 6 10 10 16 10
5 0 9 -4 9 -10z m852 -943 l-53 -53 17 -39 c60 -145 -96 -295 -241 -231 -29
13 -31 12 -82 -37 -52 -50 -53 -50 -73 -32 l-21 19 51 51 51 51 -16 37 c-44
107 16 221 132 247 23 6 54 3 91 -6 l56 -15 50 51 c51 50 51 50 70 30 20 -20
20 -20 -32 -73z m-642 13 c19 -5 48 -18 63 -28 27 -18 27 -19 10 -41 l-18 -21
-43 21 c-101 50 -198 -37 -162 -145 23 -72 107 -99 177 -57 30 19 32 19 48 1
21 -23 14 -35 -35 -60 -85 -43 -192 -14 -238 65 -19 33 -22 51 -19 102 4 87
50 145 128 163 47 11 50 11 89 0z m2080 -22 c109 -59 117 -216 15 -294 -83
-63 -214 -35 -262 56 -87 163 84 328 247 238z m-7067 13 c20 -5 49 -16 62 -25
l25 -17 -21 -28 c-21 -28 -21 -28 -59 -14 -109 43 -196 -61 -124 -146 21 -25
33 -31 66 -31 41 0 78 14 78 30 0 6 -11 10 -25 10 -23 0 -25 4 -25 40 l0 41
63 -3 62 -3 0 -95 0 -95 -28 -3 c-16 -2 -34 1 -40 7 -8 6 -26 6 -53 -1 -79
-22 -163 15 -194 85 -50 109 5 219 123 247 44 11 47 11 90 1z m6002 -8 c39
-19 41 -22 22 -47 -13 -17 -15 -17 -64 0 -48 17 -52 17 -77 1 -50 -33 -32 -56
67 -87 75 -23 97 -46 97 -102 0 -94 -125 -131 -228 -68 -32 20 -33 20 -15 44
18 23 19 23 43 6 35 -24 81 -33 114 -20 22 8 27 15 24 38 -3 24 -11 30 -73 50
-82 26 -103 45 -112 95 -5 32 -1 41 30 72 31 31 41 35 86 35 28 0 66 -8 86
-17z m367 -64 l51 -81 51 81 c47 74 54 81 84 81 l32 0 0 -170 0 -170 -30 0
-29 0 -3 117 -3 117 -52 -79 -51 -78 -49 73 -48 73 -3 -111 -3 -112 -34 0 -35
0 0 170 0 170 35 0 c33 0 38 -5 87 -81z m1192 58 c25 -17 25 -19 11 -41 l-16
-24 -36 19 c-42 21 -66 24 -94 9 -46 -25 -13 -68 68 -89 86 -23 120 -76 93
-145 -21 -56 -127 -74 -207 -35 -48 23 -49 26 -29 55 14 18 16 18 43 3 47 -28
91 -33 118 -15 46 30 23 64 -59 86 -68 19 -106 53 -106 97 0 44 13 69 48 88
35 20 130 15 166 -8z m-6978 -142 c30 -82 57 -158 60 -167 5 -15 -1 -18 -40
-18 -43 0 -46 2 -54 33 -8 31 -10 32 -64 35 l-56 3 -12 -36 c-10 -32 -15 -35
-49 -35 -21 0 -40 2 -43 5 -3 3 19 74 49 158 29 83 56 158 58 165 3 9 20 12
51 10 l46 -3 54 -150z m544 120 l0 -35 -55 0 -54 0 -3 -132 -3 -133 -40 0 -40
0 -3 133 -3 132 -49 0 -50 0 0 35 0 35 150 0 150 0 0 -35z m450 0 l0 -35 -65
0 -65 0 0 -29 c0 -29 2 -30 53 -33 51 -3 52 -4 55 -35 l3 -33 -55 0 c-55 0
-56 0 -56 -30 0 -29 0 -29 68 -32 l67 -3 0 -35 0 -35 -110 0 -110 0 -3 168 -2
167 110 0 110 0 0 -35z m364 -7 c4 -24 14 -74 23 -113 l16 -70 19 75 c42 166
35 152 76 148 l36 -3 27 -105 c14 -58 29 -98 32 -90 3 8 13 49 22 90 9 41 19
83 22 93 3 13 15 17 49 17 41 0 44 -2 39 -22 -3 -13 -23 -86 -43 -163 l-37
-140 -50 -3 -50 -3 -25 97 -24 97 -25 -97 -25 -97 -50 3 -51 3 -41 163 -42
162 48 0 47 0 7 -42z m825 -111 c30 -83 56 -158 59 -164 3 -9 -9 -13 -42 -13
-43 0 -46 2 -54 33 -8 31 -10 32 -65 35 l-56 3 -7 -36 c-6 -34 -8 -35 -50 -35
-24 0 -44 4 -44 8 0 5 25 78 55 163 30 85 55 155 55 156 0 2 21 3 48 3 l47 0
54 -153z m358 98 c15 -30 30 -55 33 -55 3 0 18 25 33 55 27 55 27 55 72 55 25
0 45 -3 45 -6 0 -3 -25 -48 -55 -99 -52 -88 -55 -98 -55 -159 l0 -66 -40 0
-40 0 0 64 c0 61 -3 70 -60 165 l-59 101 50 0 49 0 27 -55z m893 -15 c0 -5
-13 -10 -30 -10 l-30 0 0 -90 c0 -116 -18 -118 -22 -2 -3 87 -3 87 -30 90 -56
7 -26 22 42 22 40 0 70 -4 70 -10z m151 0 c30 -17 52 -68 45 -108 -12 -77 -90
-109 -141 -57 -20 19 -25 34 -25 72 1 50 11 72 45 91 25 14 51 15 76 2z
m-2902 -1234 c8 -6 12 -5 8 0 -3 5 34 9 87 9 68 0 93 -3 93 -12 0 -10 -31 -13
-124 -13 -96 0 -123 3 -123 13 0 15 37 17 59 3z m531 -12 c0 -8 -19 -13 -24
-6 -3 5 1 9 9 9 8 0 15 -2 15 -3z m-997 -839 c20 -11 37 -23 37 -27 0 -5 4 -8
9 -8 6 0 34 -15 64 -33 l55 -33 -20 -38 c-30 -58 -15 -136 42 -221 11 -16 23
-37 27 -45 3 -8 11 -18 15 -21 5 -3 10 -13 12 -21 1 -8 9 -27 19 -41 9 -15 17
-30 17 -35 0 -5 7 -15 15 -22 8 -7 15 -16 15 -21 0 -13 -181 -213 -196 -217
-7 -2 -30 8 -50 22 -50 34 -283 103 -449 132 -16 3 -49 14 -72 24 -34 15 -44
25 -52 57 -15 53 -14 113 5 194 23 103 73 170 217 293 67 57 131 113 141 125
l19 21 46 -33 c25 -18 63 -41 84 -52z m237 -140 l25 -14 -32 -11 c-18 -7 -33
-19 -33 -27 0 -13 -3 -13 -15 -3 -12 10 -13 15 -4 20 6 4 8 13 5 19 -9 14 1
31 17 31 7 -1 23 -7 37 -15z m355 -363 c22 -18 80 -48 127 -67 102 -41 154
-70 140 -79 -6 -4 -13 -2 -16 3 -4 5 -24 12 -46 16 -22 4 -40 10 -40 14 0 4
-14 8 -32 9 -18 2 -35 6 -38 10 -3 4 -18 13 -33 20 -45 20 -90 58 -111 94 -21
35 -21 35 49 -20z m82 -157 c41 -63 120 -140 189 -186 35 -23 64 -43 64 -46 0
-11 -57 4 -71 19 -9 10 -19 15 -23 11 -3 -3 -6 -1 -6 5 0 7 -6 12 -12 12 -7 1
-33 24 -58 52 -25 28 -54 58 -65 67 -11 9 -38 35 -61 57 -57 58 -71 47 -51
-40 19 -82 93 -185 135 -186 14 0 -12 43 -54 89 -19 21 -40 79 -31 87 12 12
137 -99 137 -123 0 -6 16 -17 34 -24 19 -7 33 -16 30 -21 -3 -4 -16 0 -30 8
-29 20 -48 8 -19 -11 11 -8 25 -19 32 -25 7 -5 17 -10 22 -10 5 0 16 -8 23
-19 7 -10 35 -33 61 -51 28 -19 46 -38 43 -45 -2 -7 1 -21 8 -31 12 -16 19
-17 85 -5 40 7 74 11 75 10 7 -9 -7 -78 -15 -73 -5 3 -9 -4 -9 -14 0 -22 -23
-46 -33 -35 -4 3 -7 -1 -7 -10 0 -16 14 -31 65 -72 14 -12 16 -18 8 -21 -7 -3
-13 -12 -13 -19 0 -10 12 -13 40 -11 42 3 80 -21 80 -50 0 -12 -4 -13 -21 -4
-11 6 -30 10 -42 8 -20 -3 -19 -5 11 -21 24 -13 37 -15 51 -7 14 7 22 7 26 0
4 -6 10 -8 15 -5 9 5 25 -24 21 -40 -1 -5 6 -2 16 6 16 15 41 15 53 0 3 -3 36
-22 73 -41 38 -19 63 -36 56 -39 -32 -10 -319 32 -408 61 -118 38 -297 156
-343 225 -56 84 -118 202 -145 277 -16 45 -51 252 -60 361 l-6 70 53 -50 c28
-27 63 -68 77 -90z m-184 43 c21 -17 45 -84 62 -178 16 -88 20 -80 -113 -219
-107 -112 -142 -182 -147 -291 -2 -44 -7 -85 -10 -90 -14 -23 -141 3 -204 41
-20 13 -21 19 -15 64 11 89 41 191 68 237 14 25 26 51 26 58 0 7 14 35 30 62
17 26 30 55 30 62 0 8 11 23 25 34 14 11 25 24 25 28 0 5 17 27 36 49 20 22
51 56 68 75 34 38 84 80 95 80 4 0 15 -6 24 -12z m4661 -146 c-4 -12 -10 -22
-15 -22 -5 0 -9 -7 -9 -15 0 -20 -35 -40 -95 -54 -54 -13 -70 -24 -87 -54 -10
-20 -10 -20 18 -1 53 36 104 54 131 48 16 -4 28 -2 34 7 6 10 11 11 20 2 7 -7
8 -17 3 -25 -5 -7 -10 -44 -11 -81 -3 -95 -44 -215 -97 -281 -43 -53 -102 -88
-167 -100 -32 -6 -36 -4 -35 16 1 19 -7 24 -46 33 -57 12 -66 20 -40 36 12 7
17 19 14 31 -2 10 1 18 8 18 9 0 8 6 -4 19 -13 14 -14 24 -7 45 7 16 7 26 1
26 -12 0 -1 32 15 45 6 6 17 20 24 33 7 14 21 22 36 22 14 0 25 4 25 10 0 5
14 25 30 44 17 19 29 39 28 44 -2 6 22 33 52 61 54 49 54 50 20 38 -19 -7 -46
-18 -58 -26 -34 -19 -39 -6 -5 15 15 10 47 34 71 52 35 29 44 32 58 21 14 -11
14 -13 0 -21 -9 -5 -16 -16 -16 -24 0 -11 8 -9 35 8 19 13 35 28 35 34 0 16
23 35 32 26 4 -4 5 -17 2 -30z m-5043 -79 c-10 -17 -10 -16 -11 3 0 23 13 41
18 25 2 -6 -1 -18 -7 -28z m-928 -29 c-9 -15 -19 -21 -21 -15 -4 13 16 41 29
41 5 0 2 -12 -8 -26z m911 -33 c-4 -17 -9 -30 -11 -27 -3 2 -2 19 2 36 9 41
17 33 9 -9z m4576 -241 c0 -5 -4 -10 -10 -10 -5 0 -10 5 -10 10 0 6 5 10 10
10 6 0 10 -4 10 -10z m-1970 -83 c0 -9 54 -13 203 -15 182 -2 212 -5 300 -28
98 -27 112 -38 69 -60 -12 -6 -19 -14 -15 -17 3 -4 1 -7 -5 -7 -7 0 -12 -4
-12 -10 0 -5 10 -10 23 -10 23 0 62 -20 40 -20 -7 0 -23 -11 -37 -25 -23 -23
-106 -44 -177 -45 -13 0 -42 -2 -64 -5 -81 -8 -240 -14 -227 -9 6 3 10 10 6
15 -9 14 -44 10 -50 -6 -7 -17 -34 -21 -34 -4 0 5 -4 8 -9 5 -5 -4 -11 0 -14
6 -3 10 -7 10 -18 1 -11 -8 -23 -8 -54 3 -47 16 -81 18 -90 4 -3 -6 -17 -7
-31 -4 -19 5 -24 2 -25 -12 -1 -15 -2 -16 -6 -3 -2 9 -27 26 -54 39 l-51 23
28 23 c16 13 36 24 44 24 8 1 2 8 -15 15 -27 13 -27 14 -7 15 25 0 28 10 10
28 -7 7 -13 26 -14 42 -1 26 2 30 33 36 20 4 50 2 68 -4 26 -7 32 -7 29 3 -4
9 15 13 75 13 57 1 81 -3 81 -11z m645 -197 c-3 -5 -13 -10 -21 -10 -8 0 -12
5 -9 10 3 6 13 10 21 10 8 0 12 -4 9 -10z m1335 -10 c0 -5 -3 -9 -7 -8 -5 1
-21 -4 -38 -11 -76 -32 -265 -55 -265 -32 0 12 33 21 120 32 130 15 165 20
169 25 8 8 21 4 21 -6z m-5583 -22 c-3 -8 -6 -5 -6 6 -1 11 2 17 5 13 3 -3 4
-12 1 -19z m4293 -77 c-39 -23 -277 -47 -490 -50 -143 -2 -476 16 -535 29 -26
5 0 6 70 2 185 -12 739 -4 850 11 127 18 123 18 105 8z"/>
<path d="M5070 9969 c0 -5 5 -7 10 -4 6 3 10 8 10 11 0 2 -4 4 -10 4 -5 0 -10
-5 -10 -11z"/>
<path d="M5000 9929 c0 -5 5 -7 10 -4 6 3 10 8 10 11 0 2 -4 4 -10 4 -5 0 -10
-5 -10 -11z"/>
<path d="M5130 9931 c0 -6 5 -13 10 -16 6 -3 10 1 10 9 0 9 -4 16 -10 16 -5 0
-10 -4 -10 -9z"/>
<path d="M7490 9869 c0 -5 5 -7 10 -4 6 3 10 8 10 11 0 2 -4 4 -10 4 -5 0 -10
-5 -10 -11z"/>
<path d="M7201 9534 c6 -8 18 -14 25 -14 8 0 14 -4 14 -10 0 -5 9 -10 20 -10
33 0 12 25 -30 37 -34 9 -38 8 -29 -3z"/>
<path d="M7300 9492 c0 -4 9 -8 20 -9 11 -1 18 2 15 8 -7 11 -35 12 -35 1z"/>
<path d="M2696 9323 c-6 -14 -5 -15 5 -6 7 7 10 15 7 18 -3 3 -9 -2 -12 -12z"/>
<path d="M2640 9308 c1 -7 7 -26 14 -43 l13 -30 7 28 c4 18 2 34 -5 43 -14 17
-29 18 -29 2z"/>
<path d="M6763 8953 c9 -2 25 -2 35 0 9 3 1 5 -18 5 -19 0 -27 -2 -17 -5z"/>
<path d="M4342 8178 c-7 -7 -12 -17 -12 -23 0 -6 -9 -28 -21 -49 -11 -21 -22
-55 -24 -75 -3 -25 -2 -30 4 -16 33 81 69 175 67 175 -1 0 -7 -5 -14 -12z"/>
<path d="M3010 8690 c-9 -6 -10 -10 -3 -10 6 0 15 5 18 10 8 12 4 12 -15 0z"/>
<path d="M2842 8600 c9 -14 14 -16 20 -7 13 20 9 27 -12 27 -18 0 -19 -3 -8
-20z"/>
<path d="M3290 8574 c0 -31 56 -83 109 -101 44 -15 51 -9 20 16 -14 12 -18 20
-11 21 7 0 10 5 7 10 -5 8 -11 7 -21 -1 -11 -9 -20 -8 -39 5 -29 19 -32 33 -7
39 9 2 7 3 -6 2 -12 -1 -25 2 -28 6 -6 10 -24 12 -24 3z"/>
<path d="M2838 8559 c23 -7 32 -15 28 -25 -3 -7 -1 -14 3 -14 5 0 16 -3 25 -6
11 -4 16 0 16 13 0 23 -38 43 -78 42 -26 -1 -25 -1 6 -10z"/>
<path d="M2815 8510 c21 -24 26 -25 19 -6 -3 8 -13 17 -22 21 -13 5 -13 2 3
-15z"/>
<path d="M2846 8465 c4 -8 11 -15 16 -15 6 0 5 6 -2 15 -7 8 -14 15 -16 15 -2
0 -1 -7 2 -15z"/>
<path d="M2900 8440 c0 -5 7 -7 15 -4 8 4 15 8 15 10 0 2 -7 4 -15 4 -8 0 -15
-4 -15 -10z"/>
<path d="M2940 8425 c0 -10 -10 -15 -27 -15 -27 -1 -27 -1 -7 -13 12 -7 19
-18 17 -24 -3 -7 0 -13 6 -13 6 0 11 7 11 16 0 12 7 15 24 12 l24 -5 -21 29
c-24 32 -27 34 -27 13z"/>
<path d="M2818 8409 c-6 -17 -97 -33 -173 -32 -52 2 -65 0 -52 -8 9 -6 15 -14
12 -20 -8 -13 -21 -11 -37 4 -7 7 -25 18 -40 24 -21 10 -29 9 -38 -3 -10 -11
-9 -14 7 -14 10 0 59 -20 108 -45 88 -44 89 -45 57 -14 -24 22 -30 35 -23 42
13 13 54 -20 44 -36 -3 -6 -1 -7 5 -3 6 4 28 -10 49 -31 59 -58 110 -94 164
-114 88 -34 126 -21 91 29 -29 40 -37 73 -21 83 12 8 11 11 -2 19 -37 22 -128
103 -124 110 3 4 -2 10 -9 13 -8 3 -16 1 -18 -4z m-10 -41 c-3 -7 -11 -13 -18
-13 -7 0 -15 6 -17 13 -3 7 4 12 17 12 13 0 20 -5 18 -12z m-88 -33 c7 -8 23
-15 35 -15 12 0 28 -7 35 -15 21 -26 -19 -18 -62 11 -21 15 -38 28 -38 30 0
10 19 2 30 -11z m240 -56 c0 -5 -4 -9 -10 -9 -5 0 -10 7 -10 16 0 8 5 12 10 9
6 -3 10 -10 10 -16z m-71 -18 c43 -23 56 -36 64 -71 5 -22 1 -20 -34 18 -22
23 -44 42 -48 42 -5 0 -14 7 -21 15 -17 20 -7 19 39 -4z m-54 -7 c14 -9 25
-20 25 -25 0 -16 -25 -9 -55 16 -24 19 -26 24 -12 25 10 0 29 -7 42 -16z m81
-69 c18 -15 18 -15 -5 -13 -14 2 -26 9 -29 16 -5 17 10 15 34 -3z"/>
<path d="M2381 8327 c-8 -11 -5 -18 12 -34 24 -21 168 -93 187 -93 20 0 5 24
-18 30 -12 3 -31 13 -42 23 -11 9 -27 17 -36 17 -21 0 -74 41 -74 57 0 17 -14
17 -29 0z"/>
<path d="M1460 8120 c0 -5 10 -10 23 -10 18 0 19 2 7 10 -19 13 -30 13 -30 0z"/>
<path d="M1390 7864 c0 -4 8 -13 18 -21 12 -10 14 -16 5 -19 -18 -8 -16 -34 2
-34 8 0 15 -6 15 -12 0 -8 5 -6 10 4 7 10 17 14 31 11 16 -4 20 -2 17 8 -3 8
-15 13 -28 11 -19 -2 -21 0 -10 13 8 9 9 19 4 24 -12 11 -64 23 -64 15z"/>
<path d="M1326 7765 c4 -8 16 -15 28 -15 21 1 21 1 2 15 -25 19 -37 19 -30 0z"/>
<path d="M2029 7523 c-1 -5 -1 -12 0 -17 1 -5 -5 -6 -13 -3 -9 4 -18 2 -21 -2
-3 -5 2 -11 10 -15 8 -3 17 -1 21 5 3 5 14 7 24 4 15 -5 17 -2 13 15 -5 19
-32 29 -34 13z"/>
<path d="M1880 7475 c0 -9 31 -34 43 -35 4 0 7 7 7 15 0 8 -4 15 -9 15 -5 0
-16 3 -25 6 -9 3 -16 3 -16 -1z"/>
<path d="M6015 8549 c-373 -14 -572 -47 -700 -118 -22 -12 -31 -19 -20 -15
262 89 236 87 1060 91 593 4 737 2 815 -10 52 -8 104 -18 115 -21 11 -4 6 0
-10 8 -46 21 -165 43 -305 56 -147 14 -684 19 -955 9z"/>
<path d="M7430 8400 c8 -5 20 -10 25 -10 6 0 3 5 -5 10 -8 5 -19 10 -25 10 -5
0 -3 -5 5 -10z"/>
<path d="M7470 8386 c0 -3 9 -10 20 -16 11 -6 20 -8 20 -6 0 3 -9 10 -20 16
-11 6 -20 8 -20 6z"/>
<path d="M7560 8335 c0 -2 32 -21 70 -40 39 -19 70 -33 70 -30 0 2 -31 21 -70
40 -38 19 -70 33 -70 30z"/>
<path d="M7710 8255 c0 -2 23 -16 50 -30 28 -14 50 -23 50 -20 0 2 -22 16 -50
30 -27 14 -50 23 -50 20z"/>
<path d="M7955 8240 c3 -6 20 -10 37 -10 38 0 34 5 -10 13 -21 4 -31 3 -27 -3z"/>
<path d="M4845 8112 c-33 -8 -55 -17 -48 -19 12 -4 123 25 123 33 0 5 -5 5
-75 -14z"/>
<path d="M8190 8106 c0 -2 8 -10 18 -17 15 -13 16 -12 3 4 -13 16 -21 21 -21
13z"/>
<path d="M4680 8061 c-87 -33 -230 -98 -230 -104 0 -3 55 18 123 45 67 28 142
59 167 69 72 29 23 21 -60 -10z"/>
<path d="M6245 8200 c-98 -19 -222 -30 -356 -32 -79 -1 -121 -3 -94 -5 28 -1
84 -6 125 -10 l75 -7 -60 -7 c-33 -4 -97 -7 -142 -8 -74 -1 -183 -12 -273 -27
-62 -11 -2 -22 65 -13 33 5 127 11 209 14 129 5 148 4 137 -9 -6 -8 -23 -17
-36 -20 -14 -4 -25 -11 -25 -16 0 -6 11 -8 24 -4 13 3 27 1 31 -6 5 -7 11 -8
19 -1 7 6 26 10 42 10 97 0 217 11 229 21 25 21 70 25 260 22 105 -1 210 1
235 5 43 6 44 7 15 14 -16 3 -76 7 -132 8 -57 0 -103 4 -103 9 0 18 564 -9
720 -34 19 -3 32 -3 29 0 -11 11 -170 35 -344 51 -150 14 -266 27 -345 40 -53
9 -267 13 -305 5z m138 -57 c-34 -2 -93 -2 -130 0 -37 2 -9 3 62 3 72 0 102
-1 68 -3z"/>
<path d="M5550 8150 c-20 -6 -21 -8 -5 -8 11 0 29 3 40 8 25 11 -1 11 -35 0z"/>
<path d="M5483 8133 c9 -2 23 -2 30 0 6 3 -1 5 -18 5 -16 0 -22 -2 -12 -5z"/>
<path d="M5842 8010 c0 -17 6 -31 15 -34 12 -5 13 -9 3 -21 -7 -8 -18 -15 -25
-15 -6 0 -20 -8 -29 -19 -16 -17 -15 -19 19 -35 19 -9 35 -21 35 -26 0 -6 13
-10 29 -10 17 0 33 -5 36 -10 9 -15 64 41 70 71 9 42 -5 100 -23 98 -38 -3
-62 2 -59 13 1 6 -7 14 -17 16 -14 3 -17 0 -13 -12 4 -9 2 -16 -3 -16 -6 0
-10 4 -10 9 0 5 -6 11 -14 14 -9 4 -13 -4 -14 -23z"/>
<path d="M5603 7993 c9 -2 17 -11 17 -19 0 -8 5 -12 10 -9 21 13 10 35 -17 34
-17 -1 -21 -3 -10 -6z"/>
<path d="M5690 7981 c0 -17 15 -19 35 -5 18 13 18 14 -8 14 -15 0 -27 -4 -27
-9z"/>
<path d="M7040 7938 c0 -17 2 -18 15 -8 8 7 15 14 15 15 0 2 -7 5 -15 9 -10 4
-15 -1 -15 -16z"/>
<path d="M6930 7925 c-10 -13 -9 -15 8 -15 15 0 20 5 16 15 -4 8 -7 15 -9 15
-1 0 -8 -7 -15 -15z"/>
<path d="M7065 7840 c-4 -6 5 -10 20 -10 15 0 25 -5 24 -12 -5 -42 7 -48 39
-19 27 23 28 31 3 24 -10 -2 -25 3 -34 11 -18 18 -43 21 -52 6z"/>
<path d="M7226 7774 c-4 -10 -13 -13 -26 -9 -21 7 -28 -9 -10 -20 15 -9 80 14
80 29 0 17 -37 17 -44 0z"/>
<path d="M7281 7674 c0 -11 3 -14 6 -6 3 7 2 16 -1 19 -3 4 -6 -2 -5 -13z"/>
<path d="M5360 7641 c0 -7 7 -14 15 -17 20 -8 19 -24 -2 -40 -13 -10 -14 -13
-4 -14 8 0 20 8 27 18 15 20 18 52 5 52 -5 0 -16 3 -25 6 -9 3 -16 1 -16 -5z"/>
<path d="M7318 7581 c2 -16 -1 -38 -7 -50 -11 -20 -9 -23 17 -20 4 0 6 7 4 15
-2 7 2 23 8 34 8 16 8 24 -4 35 -21 21 -23 19 -18 -14z"/>
<path d="M7682 7598 c6 -17 36 -34 44 -25 4 4 -1 14 -12 22 -23 18 -37 19 -32
3z"/>
<path d="M7780 7575 c-10 -13 -9 -15 8 -15 15 0 20 5 16 15 -4 8 -7 15 -9 15
-1 0 -8 -7 -15 -15z"/>
<path d="M4946 7561 c-4 -5 3 -7 14 -4 23 6 26 13 6 13 -8 0 -17 -4 -20 -9z"/>
<path d="M5430 7545 c0 -8 7 -15 16 -15 14 0 14 3 4 15 -7 8 -14 15 -16 15 -2
0 -4 -7 -4 -15z"/>
<path d="M7693 7553 c-7 -3 -13 -14 -13 -24 0 -13 -6 -20 -17 -18 -33 3 -42
-1 -37 -16 8 -21 -40 -39 -67 -25 -15 9 -19 7 -19 -6 0 -9 -9 -18 -20 -21 -24
-6 -25 -15 -5 -53 9 -17 15 -33 15 -37 -2 -15 72 -26 91 -15 21 13 48 6 66
-17 7 -9 13 -11 13 -5 0 6 -13 22 -28 35 -44 37 -45 46 -10 64 21 10 34 12 36
5 5 -13 32 -13 32 0 0 6 -5 10 -11 10 -5 0 -7 5 -4 10 8 14 45 13 45 -1 0 -6
10 -19 22 -29 22 -18 23 -17 46 6 25 24 22 44 -5 44 -9 0 -13 -6 -9 -15 3 -8
1 -15 -4 -15 -6 0 -10 5 -10 11 0 7 -12 23 -27 37 -18 16 -23 27 -15 30 6 2
12 11 12 20 0 15 -2 15 -10 2 -6 -9 -13 -11 -17 -5 -15 19 -38 32 -50 28z m21
-49 c20 -8 21 -24 2 -24 -8 0 -16 7 -20 15 -6 17 -4 18 18 9z m-138 -91 c-10
-10 -19 5 -10 18 6 11 8 11 12 0 2 -7 1 -15 -2 -18z m44 -32 c7 -14 7 -22 0
-26 -13 -8 -40 13 -40 31 0 21 28 17 40 -5z"/>
<path d="M7445 7530 c3 -5 11 -10 16 -10 6 0 7 5 4 10 -3 6 -11 10 -16 10 -6
0 -7 -4 -4 -10z"/>
<path d="M4885 7511 c-3 -5 -1 -12 5 -16 12 -7 30 2 30 16 0 12 -27 12 -35 0z"/>
<path d="M7260 7470 c-19 -16 -51 -32 -70 -36 -102 -17 -190 -59 -190 -90 0
-11 -14 -34 -31 -52 -35 -36 -30 -56 12 -47 22 5 29 3 29 -9 0 -9 -7 -16 -15
-16 -9 0 -18 -7 -21 -15 -7 -17 -35 -20 -51 -4 -7 7 -13 7 -17 0 -8 -12 28
-33 51 -29 10 2 18 -1 18 -7 2 -23 28 -131 33 -140 7 -11 11 -26 17 -61 9 -57
46 -83 138 -100 30 -5 37 -3 37 10 0 23 17 20 25 -4 7 -21 25 -28 25 -10 0 6
7 10 15 10 17 0 20 25 5 35 -13 8 -13 55 -1 55 5 0 11 -6 14 -12 2 -7 3 8 3
34 -1 39 -4 48 -18 48 -36 0 -15 28 60 80 23 17 42 34 42 40 0 14 -27 1 -34
-16 -3 -8 -13 -14 -22 -14 -14 0 -15 7 -9 46 6 43 5 45 -16 42 -12 -2 -24 3
-26 10 -3 6 2 12 11 12 9 0 15 3 14 8 -4 10 32 101 49 128 15 24 9 70 -14 92
-7 7 -13 20 -13 28 0 20 -11 17 -50 -16z m-250 -290 c0 -5 -4 -10 -10 -10 -5
0 -10 5 -10 10 0 6 5 10 10 10 6 0 10 -4 10 -10z m132 -5 c0 -5 -5 -11 -11
-13 -6 -2 -11 4 -11 13 0 9 5 15 11 13 6 -2 11 -8 11 -13z m136 -22 c-2 -10
-9 -18 -16 -18 -17 0 -43 -35 -36 -46 3 -5 0 -9 -5 -9 -13 0 -10 -22 4 -32 6
-5 6 -8 -2 -8 -6 0 -15 5 -18 10 -5 8 -11 8 -20 0 -9 -8 -11 -4 -7 16 3 15 13
29 24 32 13 3 18 11 15 22 -7 27 11 50 39 50 19 0 25 -5 22 -17z m-178 -23 c0
-5 -4 -10 -10 -10 -5 0 -10 5 -10 10 0 6 5 10 10 10 6 0 10 -4 10 -10z m70 0
c0 -5 -4 -10 -10 -10 -5 0 -10 5 -10 10 0 6 5 10 10 10 6 0 10 -4 10 -10z"/>
<path d="M4965 7471 c-8 -25 1 -41 22 -41 11 0 13 -5 8 -17 -4 -10 -8 -26 -9
-35 -1 -10 -6 -21 -11 -25 -4 -5 -5 -3 -2 4 12 20 -17 21 -42 2 -13 -10 -27
-16 -31 -14 -5 3 -11 1 -15 -5 -12 -19 26 -23 46 -4 21 18 21 18 44 -9 28 -31
50 -35 64 -9 6 9 11 13 11 8 0 -17 30 17 30 35 0 11 6 19 14 19 9 0 13 10 12
25 -1 20 -6 25 -28 25 -17 0 -28 5 -28 14 0 9 -7 12 -20 9 -13 -4 -27 2 -39
16 -19 22 -19 22 -26 2z m69 -123 c-9 -32 -12 -34 -31 -15 -16 16 -16 17 0 17
9 0 17 5 17 10 0 6 5 10 11 10 6 0 8 -9 3 -22z"/>
<path d="M7790 7481 c0 -5 5 -13 10 -16 6 -3 10 -2 10 4 0 5 -4 13 -10 16 -5
3 -10 2 -10 -4z"/>
<path d="M5677 7464 c-3 -4 -24 -7 -44 -8 -31 -1 -38 -5 -38 -21 0 -14 8 -21
25 -24 30 -4 41 -19 34 -47 -4 -14 0 -23 10 -27 20 -8 21 -36 2 -43 -8 -3 -13
-11 -10 -18 6 -17 54 -8 54 10 0 7 12 14 28 16 34 4 42 44 15 84 -10 16 -17
29 -15 31 8 10 0 14 -11 5 -10 -8 -13 -5 -12 16 0 25 -22 41 -38 26z"/>
<path d="M7850 7390 c-6 -11 -14 -19 -18 -17 -4 1 -7 -2 -7 -8 0 -5 9 -9 19
-7 21 3 47 32 40 44 -9 14 -23 9 -34 -12z"/>
<path d="M5100 7334 c0 -9 -9 -18 -20 -21 -28 -7 -25 -23 5 -23 15 0 25 6 25
14 0 8 3 21 6 30 3 9 1 16 -5 16 -6 0 -11 -7 -11 -16z"/>
<path d="M7730 7312 c0 -5 6 -17 14 -28 12 -15 17 -17 27 -6 11 10 10 12 -4
12 -9 0 -17 7 -17 15 0 8 -4 15 -10 15 -5 0 -10 -4 -10 -8z"/>
<path d="M6910 7295 c0 -8 5 -15 10 -15 6 0 10 7 10 15 0 8 -4 15 -10 15 -5 0
-10 -7 -10 -15z"/>
<path d="M5800 7290 c0 -5 4 -10 9 -10 6 0 13 5 16 10 3 6 -1 10 -9 10 -9 0
-16 -4 -16 -10z"/>
<path d="M6856 7195 c25 -19 40 -19 24 0 -7 8 -20 15 -28 15 -13 0 -12 -3 4
-15z"/>
<path d="M8003 5480 c-17 -10 -37 -28 -42 -39 -13 -23 -15 -108 -3 -115 5 -3
44 30 86 73 74 74 77 80 58 90 -30 16 -63 13 -99 -9z"/>
<path d="M8077 5352 c-43 -43 -74 -81 -71 -85 4 -4 29 -7 55 -7 40 0 52 5 78
31 27 27 31 38 31 85 0 30 -3 54 -8 54 -4 0 -42 -35 -85 -78z"/>
<path d="M9564 5490 c-52 -21 -83 -96 -64 -155 16 -50 53 -75 109 -75 68 1
111 44 111 113 0 90 -78 149 -156 117z"/>
<path d="M3098 5395 l-15 -55 33 0 33 0 -16 53 c-8 28 -16 53 -17 55 -2 1 -10
-23 -18 -53z"/>
<path d="M5282 5406 c-17 -64 -16 -66 18 -66 28 0 30 2 24 28 -4 15 -12 40
-18 56 l-11 28 -13 -46z"/>
<path d="M6722 5440 c-45 -42 -19 -140 37 -140 62 0 92 101 42 141 -30 24 -52
24 -79 -1z"/>
<path d="M4488 2083 c7 -3 16 -2 19 1 4 3 -2 6 -13 5 -11 0 -14 -3 -6 -6z"/>
<path d="M3846 2651 c10 -10 21 -17 23 -15 6 6 -20 34 -32 34 -6 0 -2 -8 9
-19z"/>
<path d="M3710 2566 c0 -2 9 -6 20 -9 11 -3 20 -1 20 4 0 5 -9 9 -20 9 -11 0
-20 -2 -20 -4z"/>
<path d="M3708 2283 c6 -2 18 -2 25 0 6 3 1 5 -13 5 -14 0 -19 -2 -12 -5z"/>
<path d="M5992 2155 c10 -11 48 -14 53 -4 4 5 -8 9 -26 9 -18 0 -30 -2 -27 -5z"/>
<path d="M5900 1980 c14 -4 39 -8 55 -8 l30 0 -30 8 c-16 4 -41 8 -55 8 l-25
0 25 -8z"/>
<path d="M5940 10706 c0 -3 11 -13 25 -22 24 -16 27 -16 40 2 13 16 14 17 9 2
-4 -11 -1 -18 6 -18 6 0 10 8 8 18 -2 12 -15 18 -46 20 -23 2 -42 1 -42 -2z"/>
<path d="M6112 10558 c1 -57 2 -58 5 -15 3 33 8 47 19 47 19 0 18 16 -2 24 -9
3 -18 6 -20 6 -2 0 -3 -28 -2 -62z"/>
<path d="M6045 10600 c3 -5 8 -10 11 -10 2 0 4 5 4 10 0 6 -5 10 -11 10 -5 0
-7 -4 -4 -10z"/>
<path d="M6600 10586 c0 -2 7 -7 16 -10 8 -3 12 -2 9 4 -6 10 -25 14 -25 6z"/>
<path d="M6629 10503 c-1 -5 0 -18 1 -31 1 -13 -6 -32 -16 -43 -10 -11 -12
-19 -6 -19 7 0 12 -4 12 -10 0 -5 -9 -10 -20 -10 -13 0 -20 -7 -20 -18 0 -10
9 -24 20 -32 42 -30 23 -36 -110 -34 -71 1 -160 -1 -197 -5 -56 -7 -41 -9 93
-10 89 0 189 -4 224 -8 60 -6 63 -5 56 13 -7 15 -25 148 -29 202 0 13 -6 17
-8 5z"/>
<path d="M4580 10474 c0 -5 28 -38 62 -74 34 -36 57 -58 52 -49 -15 26 -114
134 -114 123z"/>
<path d="M6058 10325 c-6 -30 -3 -43 8 -33 3 4 4 19 2 35 l-3 28 -7 -30z"/>
<path d="M6755 10281 c-3 -5 -1 -12 5 -16 5 -3 10 1 10 9 0 18 -6 21 -15 7z"/>
<path d="M9168 10228 c6 -6 18 -8 28 -6 14 3 12 5 -9 10 -19 3 -25 2 -19 -4z"/>
<path d="M7938 10143 c7 -3 16 -2 19 1 4 3 -2 6 -13 5 -11 0 -14 -3 -6 -6z"/>
<path d="M7685 10016 c101 -33 132 -39 120 -27 -10 10 -160 52 -180 50 -5 -1
22 -11 60 -23z"/>
<path d="M8600 9780 c0 -5 5 -10 11 -10 5 0 7 5 4 10 -3 6 -8 10 -11 10 -2 0
-4 -4 -4 -10z"/>
<path d="M9568 9713 c7 -3 16 -2 19 1 4 3 -2 6 -13 5 -11 0 -14 -3 -6 -6z"/>
<path d="M8498 9663 c7 -3 16 -2 19 1 4 3 -2 6 -13 5 -11 0 -14 -3 -6 -6z"/>
<path d="M9601 9654 c0 -11 3 -14 6 -6 3 7 2 16 -1 19 -3 4 -6 -2 -5 -13z"/>
<path d="M10620 8220 c0 -5 7 -7 15 -4 8 4 15 8 15 10 0 2 -7 4 -15 4 -8 0
-15 -4 -15 -10z"/>
<path d="M10961 8174 c0 -11 3 -14 6 -6 3 7 2 16 -1 19 -3 4 -6 -2 -5 -13z"/>
<path d="M11116 8175 c7 -17 -11 -21 -19 -5 -3 6 -4 5 -3 -2 3 -14 33 -35 40
-27 8 7 -5 49 -15 49 -5 0 -6 -7 -3 -15z"/>
<path d="M10860 7960 c0 -12 -5 -30 -10 -41 -12 -21 -1 -26 18 -7 15 15 16 54
2 63 -5 3 -10 -3 -10 -15z"/>
<path d="M11165 7050 c-3 -5 1 -10 9 -10 9 0 16 5 16 10 0 6 -4 10 -9 10 -6 0
-13 -4 -16 -10z"/>
<path d="M11340 6989 c0 -5 5 -7 10 -4 6 3 10 8 10 11 0 2 -4 4 -10 4 -5 0
-10 -5 -10 -11z"/>
<path d="M2045 6640 c-3 -5 1 -10 9 -10 8 0 18 5 21 10 3 6 -1 10 -9 10 -8 0
-18 -4 -21 -10z"/>
<path d="M1990 6565 c-20 -24 -6 -28 15 -5 10 11 13 20 8 20 -6 0 -16 -7 -23
-15z"/>
<path d="M1447 4773 c-4 -3 -7 -11 -7 -17 0 -6 5 -5 12 2 6 6 9 14 7 17 -3 3
-9 2 -12 -2z"/>
<path d="M10790 4434 c1 -5 7 -20 15 -34 13 -24 14 -24 15 -4 0 12 -7 27 -15
34 -8 7 -15 9 -15 4z"/>
<path d="M10816 4333 c1 -16 3 -28 4 -28 7 0 8 -46 0 -67 -5 -17 -5 -30 1 -33
5 -4 2 -13 -7 -22 -8 -9 -13 -24 -11 -34 3 -11 1 -22 -4 -25 -5 -3 -9 -17 -8
-32 1 -44 51 105 55 163 3 62 -5 105 -20 105 -7 0 -11 -12 -10 -27z"/>
<path d="M930 3535 c0 -8 4 -15 10 -15 5 0 7 7 4 15 -4 8 -8 15 -10 15 -2 0
-4 -7 -4 -15z"/>
<path d="M1492 2758 c-87 -102 -192 -239 -192 -250 0 -19 20 -5 42 29 20 34
181 235 231 291 11 12 16 22 10 22 -6 0 -47 -42 -91 -92z"/>
<path d="M745 2590 c-3 -5 1 -10 10 -10 9 0 13 5 10 10 -3 6 -8 10 -10 10 -2
0 -7 -4 -10 -10z"/>
<path d="M3250 2070 c6 -11 17 -20 25 -20 8 0 15 9 15 20 0 15 -7 20 -25 20
-23 0 -24 -2 -15 -20z"/>
<path d="M3888 1958 c17 -8 26 -8 34 0 9 9 4 12 -22 11 -33 0 -34 -1 -12 -11z"/>
<path d="M3388 1723 c12 -2 30 -2 40 0 9 3 -1 5 -23 4 -22 0 -30 -2 -17 -4z"/>
<path d="M3740 1702 c0 -4 9 -8 20 -9 11 -1 20 2 20 8 0 5 -9 9 -20 9 -11 0
-20 -4 -20 -8z"/>
<path d="M3030 1540 c0 -5 -11 -12 -26 -16 -16 -4 -24 -12 -22 -23 2 -10 -9
-22 -32 -32 l-35 -16 32 1 c18 1 33 4 33 9 0 4 19 7 43 7 24 0 61 9 83 19 21
11 41 15 42 10 2 -5 7 -7 10 -5 4 2 36 7 72 10 90 9 95 10 98 21 4 15 -110 28
-119 14 -4 -7 -12 -8 -19 -4 -8 5 -11 4 -6 -3 12 -19 -15 -24 -35 -6 -21 19
-119 31 -119 14z"/>
<path d="M2569 1520 c-5 -24 -3 -60 3 -60 15 0 20 28 9 47 -6 10 -11 16 -12
13z"/>
<path d="M3080 1446 c0 -9 30 -14 35 -6 4 6 -3 10 -14 10 -12 0 -21 -2 -21 -4z"/>
<path d="M2489 1341 c7 -12 10 -25 7 -29 -3 -5 4 -21 15 -38 22 -34 22 -34 5
30 -7 28 -19 52 -25 54 -10 3 -10 0 -2 -17z"/>
<path d="M2661 1344 c0 -11 3 -14 6 -6 3 7 2 16 -1 19 -3 4 -6 -2 -5 -13z"/>
<path d="M2406 1333 c-3 -4 -6 -16 -6 -27 1 -19 1 -20 11 -3 6 9 14 15 20 12
5 -4 9 -2 9 3 0 12 -26 23 -34 15z"/>
<path d="M2397 1257 c-10 -27 -10 -27 21 -26 15 1 20 3 10 6 -9 2 -18 12 -20
21 -3 15 -4 15 -11 -1z"/>
<path d="M2590 480 c0 -5 5 -10 11 -10 5 0 7 5 4 10 -3 6 -8 10 -11 10 -2 0
-4 -4 -4 -10z"/>
</g>
</svg>
